<?xml version="1.0" encoding="UTF-8"?>
<svg id="_图层_2" data-name="图层 2" xmlns="http://www.w3.org/2000/svg" xmlns:xlink="http://www.w3.org/1999/xlink" viewBox="0 0 207.19 208.27">
  <defs>
    <style>
      .cls-1 {
        fill: url(#_未命名的渐变_14);
      }

      .cls-2 {
        fill: url(#_未命名的渐变_14-2);
      }
    </style>
    <linearGradient id="_未命名的渐变_14" data-name="未命名的渐变 14" x1="207.19" y1="104.14" x2="49.01" y2="104.14" gradientUnits="userSpaceOnUse">
      <stop offset="0" stop-color="#fff"/>
      <stop offset=".2" stop-color="#dcdcdd"/>
      <stop offset="1" stop-color="#000"/>
    </linearGradient>
    <linearGradient id="_未命名的渐变_14-2" data-name="未命名的渐变 14" x1="0" y1="104.14" x2="90.17" y2="104.14" xlink:href="#_未命名的渐变_14"/>
  </defs>
  <g id="_图层_1-2" data-name="图层 1">
    <g>
      <path class="cls-1" d="m203.75,1.18c-2.79-1.85-6.62-1.52-9.03.97L52.29,148.84c-1.96,1.27-3.27,3.47-3.27,5.97v.28c0,.06,0,.12,0,.19v45.76c0,3.91,3.2,7.11,7.11,7.11,3.91,0,7.11-3.2,7.11-7.11v-43.05S192.97,24.36,192.97,24.36v160.34l-43.42-43.42c-2.77-2.77-7.29-2.77-10.06,0-2.77,2.77-2.77,7.29,0,10.06l54.86,54.86c1.83,1.83,4.42,2.44,6.77,1.85,3.42-.51,6.06-3.47,6.06-7.02V7.26c0-2.57-1.39-4.83-3.45-6.08Z"/>
      <path class="cls-2" d="m78.04,88.25c2.77,2.77,7.29,2.77,10.06,0h0c2.77-2.77,2.77-7.29,0-10.06L13.21,3.3C11.93,1.4,9.76.14,7.31.14c-.03,0-.07,0-.1,0-1.86-.03-3.73.66-5.14,2.07C.26,4.02-.36,6.58.19,8.9v192.13c0,3.91,3.2,7.11,7.11,7.11s7.11-3.2,7.11-7.11V24.62l63.62,63.62Z"/>
    </g>
  </g>
</svg>